<svg width="29" height="20" viewBox="0 0 29 20" fill="none" xmlns="http://www.w3.org/2000/svg">
<path d="M17.2188 8.75667L17.2895 8.82839L17.3607 8.75718C18.8828 7.23508 20.2942 5.82675 21.764 4.36307L21.8424 4.28509L21.757 4.21494C21.6063 4.09123 21.4533 3.96945 21.2999 3.84742C20.9215 3.54639 20.5413 3.24388 20.1917 2.90734C20.1033 2.82169 20.0126 2.69171 19.9514 2.55693C19.8886 2.41832 19.8664 2.29565 19.8868 2.21728C19.9073 2.13972 19.9887 2.0386 20.1119 1.94699C20.2323 1.85737 20.3722 1.79222 20.4828 1.77401L20.483 1.77398C22.9883 1.35591 25.4968 0.974709 28.0093 0.593386L28.0094 0.593361C28.3044 0.548095 28.4919 0.603242 28.6007 0.712351C28.7109 0.822792 28.7667 1.01454 28.7374 1.30233C28.7038 1.62676 28.6703 1.95116 28.6368 2.27553C28.4159 4.41727 28.1951 6.55757 27.9442 8.69325L27.9441 8.69335C27.9013 9.06138 27.7635 9.24718 27.6042 9.3042C27.4419 9.36233 27.2028 9.30717 26.9112 9.06469C26.5134 8.73352 26.1356 8.3796 25.6924 7.96438C25.4632 7.7497 25.2166 7.51863 24.9406 7.26585L24.8683 7.19962L24.8007 7.27061C24.2078 7.89279 23.6198 8.51409 23.0338 9.13335C21.7737 10.4648 20.5226 11.7868 19.2511 13.0877C18.5821 13.7719 17.9945 14.0839 17.4187 14.0735C16.8412 14.0631 16.2445 13.7281 15.5588 13.0408L15.5587 13.0408C14.6146 12.0967 13.6674 11.1556 12.7172 10.2177C12.6853 10.1858 12.6475 10.1631 12.6072 10.1398C12.599 10.135 12.5903 10.13 12.5811 10.1247C12.5433 10.103 12.4969 10.0764 12.4354 10.0378L12.3675 9.99523L12.3111 10.0522C9.94337 12.4445 7.55409 14.8553 5.1648 17.2631L5.16463 17.2633C5.03504 17.3945 4.90734 17.5265 4.78008 17.6581C4.42045 18.0299 4.0643 18.3982 3.67868 18.7342L3.67856 18.7343C2.76448 19.5333 1.542 19.4822 0.718632 18.6559L0.718506 18.6558C-0.0912683 17.846 -0.128105 16.599 0.74358 15.7156L0.672396 15.6453L0.743583 15.7156C4.13505 12.278 7.55114 8.86187 10.9888 5.46421L10.9888 5.46414C11.4458 5.01164 11.9672 4.80021 12.486 4.81002C13.0056 4.81984 13.5343 5.05177 14.0038 5.50786L14.004 5.50805C14.766 6.24433 15.5049 7.00236 16.2467 7.76321C16.5695 8.09435 16.8928 8.42602 17.2188 8.75667Z" fill="#377BF5" stroke="white" stroke-width="0.2"/>
</svg>
